<svg width="48" height="48" viewBox="0 0 48 48" fill="none" xmlns="http://www.w3.org/2000/svg">
<rect width="48" height="48" fill="white"/>
<mask id="path-1-inside-1" fill="white">
<path fill-rule="evenodd" clip-rule="evenodd" d="M17.7932 7C17.0061 7 16.2923 7.46157 15.9693 8.17927L14.25 12H6C2.68629 12 0 14.6863 0 18V35C0 38.3137 2.68629 41 6 41H42C45.3137 41 48 38.3137 48 35V18C48 14.6863 45.3137 12 42 12H32.8362L31.0389 8.15337C30.7101 7.44969 30.0036 7 29.2269 7H17.7932Z"/>
</mask>
<path d="M15.9693 8.17927L13.2336 6.94818V6.94818L15.9693 8.17927ZM14.25 12V15H16.1898L16.9858 13.2311L14.25 12ZM32.8362 12L30.1183 13.2699L30.9266 15H32.8362V12ZM31.0389 8.15337L33.7569 6.88344V6.88344L31.0389 8.15337ZM18.7051 9.41036C18.5436 9.76921 18.1867 10 17.7932 10V4C15.8256 4 14.041 5.15392 13.2336 6.94818L18.7051 9.41036ZM16.9858 13.2311L18.7051 9.41036L13.2336 6.94818L11.5142 10.7689L16.9858 13.2311ZM6 15H14.25V9H6V15ZM3 18C3 16.3431 4.34315 15 6 15V9C1.02944 9 -3 13.0294 -3 18H3ZM3 35V18H-3V35H3ZM6 38C4.34315 38 3 36.6569 3 35H-3C-3 39.9706 1.02944 44 6 44V38ZM42 38H6V44H42V38ZM45 35C45 36.6569 43.6569 38 42 38V44C46.9706 44 51 39.9706 51 35H45ZM45 18V35H51V18H45ZM42 15C43.6569 15 45 16.3431 45 18H51C51 13.0294 46.9706 9 42 9V15ZM32.8362 15H42V9H32.8362V15ZM28.321 9.42331L30.1183 13.2699L35.5542 10.7301L33.7569 6.88344L28.321 9.42331ZM29.2269 10C28.8386 10 28.4853 9.77515 28.321 9.42331L33.7569 6.88344C32.9349 5.12422 31.1687 4 29.2269 4V10ZM17.7932 10H29.2269V4H17.7932V10Z" fill="#152C5B" mask="url(#path-1-inside-1)"/>
<circle cx="24" cy="26" r="6.5" stroke="#F42588" stroke-width="3"/>
<path d="M33 19H41" stroke="#152C5B" stroke-width="3" stroke-linecap="round" stroke-linejoin="round"/>
</svg>
