<svg width="48" height="48" viewBox="0 0 48 48" fill="none" xmlns="http://www.w3.org/2000/svg">
<g clip-path="url(#clip0)">
<rect width="48" height="48" fill="white"/>
<path d="M32.5 39.5C32.5 40.973 31.2669 42.7103 28.35 44.1688C25.5228 45.5824 21.512 46.5 17 46.5C12.488 46.5 8.47722 45.5824 5.65001 44.1688C2.73307 42.7103 1.5 40.973 1.5 39.5C1.5 38.027 2.73307 36.2897 5.65001 34.8312C8.47722 33.4176 12.488 32.5 17 32.5C21.512 32.5 25.5228 33.4176 28.35 34.8312C31.2669 36.2897 32.5 38.027 32.5 39.5Z" stroke="#152C5B" stroke-width="3"/>
<path d="M30.5 10.8132C30.5 12.118 30.1175 14.6065 29.364 17.6936C28.6195 20.7439 27.5416 24.2628 26.2135 27.59C24.8794 30.9322 23.3223 34.0057 21.644 36.216C19.9123 38.4967 18.3293 39.5 17 39.5C15.6707 39.5 14.0877 38.4967 12.356 36.216C10.6777 34.0057 9.12063 30.9322 7.78651 27.59C6.45838 24.2628 5.38047 20.7439 4.636 17.6936C3.88253 14.6065 3.5 12.118 3.5 10.8132C3.5 8.43122 4.83654 6.13854 7.27056 4.3839C9.70244 2.63081 13.1375 1.5 17 1.5C20.8625 1.5 24.2976 2.63081 26.7294 4.3839C29.1635 6.13854 30.5 8.43122 30.5 10.8132Z" fill="white" stroke="#152C5B" stroke-width="3"/>
<circle cx="17" cy="13" r="4.5" stroke="#F42588" stroke-width="3"/>
</g>
<defs>
<clipPath id="clip0">
<rect width="48" height="48" fill="white"/>
</clipPath>
</defs>
</svg>
